<?xml version="1.0" standalone="no"?>
<!DOCTYPE svg PUBLIC "-//W3C//DTD SVG 20010904//EN"
 "http://www.w3.org/TR/2001/REC-SVG-20010904/DTD/svg10.dtd">
<svg version="1.0" xmlns="http://www.w3.org/2000/svg"
 width="640.000000pt" height="640.000000pt" viewBox="0 0 640.000000 640.000000"
 preserveAspectRatio="xMidYMid meet">
<metadata>
Created by potrace 1.14, written by Peter Selinger 2001-2017
</metadata>
<g transform="translate(0.000000,640.000000) scale(0.100000,-0.100000)"
fill="#000000" stroke="none">
<path d="M5263 6190 c-12 -5 -31 -28 -43 -52 -19 -41 -23 -75 -20 -230 1 -44
-11 -47 -55 -18 -38 25 -71 25 -159 -1 -101 -30 -187 -73 -214 -106 -37 -46
-71 -96 -86 -128 -13 -26 -13 -32 1 -47 8 -9 29 -18 47 -20 35 -3 35 -2 21
-138 -5 -56 -16 -93 -42 -145 -31 -60 -36 -80 -36 -140 0 -79 10 -135 27 -150
43 -38 106 -154 125 -233 5 -20 16 -62 24 -92 79 -286 102 -422 137 -820 5
-63 15 -162 20 -220 6 -58 13 -139 16 -180 9 -125 22 -231 39 -320 8 -47 17
-117 20 -155 l5 -71 -53 -19 c-28 -10 -101 -42 -161 -71 -96 -47 -118 -54
-190 -60 -97 -7 -133 -17 -183 -51 -30 -20 -57 -28 -127 -35 -52 -5 -104 -17
-127 -28 -21 -11 -48 -20 -60 -20 -25 0 -144 -45 -174 -66 -11 -8 -30 -14 -42
-14 -13 0 -43 -9 -67 -20 l-43 -21 -74 20 c-134 36 -189 57 -189 73 0 4 -6 8
-12 8 -7 0 -30 5 -50 11 l-38 10 0 149 0 150 36 71 c24 46 44 73 60 79 23 9
66 70 169 238 l38 63 -22 29 -22 30 43 58 c23 31 50 63 61 71 10 7 32 42 49
77 17 35 36 69 44 75 8 6 14 17 14 23 0 7 10 22 23 34 23 22 67 73 92 107 13
19 14 17 15 -27 0 -71 16 -58 22 17 7 76 22 103 45 80 8 -8 19 -15 24 -15 10
0 12 14 2 23 -3 4 -7 59 -9 122 -2 107 0 115 20 128 60 39 96 23 96 -45 1 -18
7 -46 16 -63 13 -28 14 -21 9 87 -6 132 -10 126 79 131 85 6 32 54 -62 58 -34
1 -65 -1 -69 -4 -12 -13 -53 -7 -91 12 -20 10 -60 22 -88 26 l-51 6 -34 71
c-20 41 -50 84 -71 103 -22 18 -40 44 -44 62 -8 38 -47 81 -82 89 -15 4 -40
13 -55 21 -25 13 -30 13 -40 0 -18 -22 -55 -4 -62 30 -18 82 -31 108 -65 131
-25 17 -43 22 -64 18 -36 -8 -66 -33 -66 -56 0 -30 -27 -30 -61 0 -39 34 -62
39 -108 28 -23 -6 -36 -18 -44 -37 -7 -20 -23 -32 -57 -44 -59 -21 -60 -21
-60 2 0 11 -12 23 -30 31 -25 11 -33 9 -59 -10 -17 -12 -34 -35 -39 -53 -8
-32 -9 -32 -84 -37 -71 -5 -89 -12 -126 -47 -7 -7 -38 -13 -67 -13 -30 0 -66
-5 -80 -12 -29 -13 -67 -69 -69 -101 -1 -12 -8 -22 -16 -22 -11 0 -15 -11 -13
-45 1 -36 -4 -50 -24 -71 -16 -17 -21 -29 -14 -33 6 -4 11 -17 11 -29 0 -12 9
-37 20 -54 20 -33 19 -35 -10 -37 -10 -1 -17 -16 -21 -46 -8 -62 -20 -88 -68
-142 -46 -52 -49 -65 -22 -99 12 -16 18 -37 16 -58 -2 -28 -9 -37 -36 -50 -30
-14 -36 -24 -50 -81 -9 -36 -24 -85 -33 -109 -9 -24 -16 -58 -16 -75 0 -76 42
-156 81 -156 9 0 22 -6 28 -14 16 -20 18 -432 3 -669 -17 -247 -24 -298 -48
-312 -10 -5 -34 -26 -53 -46 -20 -19 -52 -47 -71 -61 -19 -14 -58 -48 -86 -76
-29 -27 -62 -53 -75 -57 -20 -6 -195 -117 -289 -182 -89 -63 -120 -83 -126
-83 -10 0 -117 -67 -144 -90 -14 -12 -45 -34 -70 -48 -110 -63 -179 -131 -205
-203 -10 -29 -30 -75 -45 -103 -15 -28 -46 -103 -69 -166 -76 -214 -119 -385
-212 -844 -17 -82 -42 -192 -55 -245 -26 -97 -25 -140 1 -142 19 -2 25 -3 52
-13 21 -7 23 -14 23 -77 l0 -69 1860 0 1860 0 0 56 c0 31 -7 156 -15 278 -20
288 -16 618 9 735 17 82 61 191 76 191 14 0 33 119 26 170 l-7 50 63 61 c34
33 71 65 82 70 12 5 28 13 36 19 8 6 65 29 125 52 109 41 112 43 236 159 69
65 145 145 170 179 101 141 146 198 195 250 28 30 65 71 80 90 16 19 31 37 35
40 16 13 90 132 116 185 27 57 28 66 27 200 0 106 -6 161 -21 225 -12 47 -31
144 -43 215 -58 348 -142 627 -267 885 -47 96 -81 171 -156 340 -44 100 -106
276 -122 349 -4 18 -18 49 -31 68 -37 55 -32 108 22 238 25 61 51 124 59 140
112 240 116 276 40 352 -38 38 -40 48 -24 122 8 39 7 63 -5 113 -8 35 -17 125
-20 201 -6 166 -16 184 -83 157z m-189 -636 c7 -26 -2 -92 -13 -98 -3 -2 -18
-6 -33 -10 l-28 -6 6 47 c11 81 54 124 68 67z m-1503 -643 c30 -24 18 -38 -36
-43 -37 -3 -40 -1 -43 24 -2 19 2 28 15 31 33 9 41 7 64 -12z m-905 -256 c-3
-9 3 -20 14 -27 11 -7 20 -21 20 -32 0 -18 -1 -18 -18 -3 -10 10 -24 17 -30
17 -13 0 -26 36 -17 50 10 16 38 12 31 -5z"/>
<path d="M4470 4306 c0 -8 5 -18 10 -21 6 -3 10 3 10 14 0 12 -4 21 -10 21 -5
0 -10 -6 -10 -14z"/>
</g>
</svg>
